<svg width="7" height="12" viewBox="0 0 7 12" fill="none" xmlns="http://www.w3.org/2000/svg">
<path d="M2.271 7.16667C2.271 6.92504 2.07512 6.72917 1.8335 6.72917H0.520996V5.27083H1.8335C2.07512 5.27083 2.271 5.07496 2.271 4.83333V3.66667C2.271 3.00915 2.53219 2.37857 2.99713 1.91363C3.46206 1.4487 4.09265 1.1875 4.75016 1.1875H6.06266V2.64583H4.75016C4.47942 2.64583 4.21977 2.75339 4.02832 2.94483L4.33768 3.25419L4.02832 2.94483C3.83688 3.13627 3.72933 3.39592 3.72933 3.66667V4.83333C3.72933 5.07496 3.9252 5.27083 4.16683 5.27083H5.93982L5.57524 6.72917H4.16683C3.9252 6.72917 3.72933 6.92504 3.72933 7.16667V10.8125H2.271V7.16667Z" fill="#397DC8" stroke="#397DC8" stroke-width="0.875" stroke-linecap="round" stroke-linejoin="round"/>
</svg>
