<svg width="14" height="14" viewBox="0 0 14 14" fill="none" xmlns="http://www.w3.org/2000/svg">
<g clip-path="url(#clip0_1_459)">
<path d="M9.3335 2.33301H4.66683C3.37816 2.33301 2.3335 3.37768 2.3335 4.66634V9.33301C2.3335 10.6217 3.37816 11.6663 4.66683 11.6663H9.3335C10.6222 11.6663 11.6668 10.6217 11.6668 9.33301V4.66634C11.6668 3.37768 10.6222 2.33301 9.3335 2.33301Z" fill="#397DC8" stroke="#397DC8" stroke-width="0.875" stroke-linecap="round" stroke-linejoin="round"/>
<path d="M7 8.75C7.9665 8.75 8.75 7.9665 8.75 7C8.75 6.0335 7.9665 5.25 7 5.25C6.0335 5.25 5.25 6.0335 5.25 7C5.25 7.9665 6.0335 8.75 7 8.75Z" stroke="white" stroke-width="0.875" stroke-linecap="round" stroke-linejoin="round"/>
<path d="M9.625 4.375V4.376" stroke="white" stroke-width="0.875" stroke-linecap="round" stroke-linejoin="round"/>
</g>
<defs>
<clipPath id="clip0_1_459">
<rect width="14" height="14" fill="white"/>
</clipPath>
</defs>
</svg>
