<svg width="14" height="12" viewBox="0 0 14 12" fill="none" xmlns="http://www.w3.org/2000/svg">
<path d="M12.8332 1.33893C12.2498 1.62476 11.6782 1.74085 11.0832 1.91643C10.4293 1.17851 9.45975 1.13768 8.52817 1.48651C7.59659 1.83535 6.98642 2.68818 6.99984 3.66643V4.24976C5.10692 4.29818 3.42109 3.43601 2.33317 1.91643C2.33317 1.91643 -0.106329 6.25235 4.6665 8.3331C3.5745 9.06051 2.48542 9.5511 1.1665 9.49976C3.09617 10.5515 5.19909 10.9132 7.01967 10.3847C9.108 9.77801 10.8242 8.21293 11.4828 5.86851C11.6792 5.15549 11.7768 4.41885 11.7727 3.67926C11.7715 3.53401 12.6535 2.06226 12.8332 1.33835V1.33893Z" fill="#397DC8" stroke="#397DC8" stroke-width="0.875" stroke-linecap="round" stroke-linejoin="round"/>
</svg>
